#!OML:ASF H:\Dans Jumps\Project 1\Capture day 1\Session 1\subject.ASF
:FULLY-SPECIFIED
:DEGREES
392
root 0.350658 16.126 -4.73348 1.45592 1.2342 -0.742325
lowerback 9.08967 0.388238 -1.45649
upperback 4.5992 0.421443 1.64299
thorax -0.351656 0.171393 2.47673
lowerneck -14.3775 -0.313545 -1.80615
upperneck 29.7906 -0.237203 0.970417
head 12.1984 -0.177545 0.645724
rclavicle -3.57812e-015 -1.19271e-014
rhumerus -24.453 -19.3495 -79.1699
rradius 20.1615
rwrist 42.2791
rhand -20.14 -28.0875
rfingers 7.12502
rthumb 6.20464 -57.9766
lclavicle -3.57812e-015 -1.19271e-014
lhumerus -25.195 15.1769 83.3151
lradius 10.6342
lwrist -2.95156
lhand -25.9256 -5.61949
lfingers 7.12502
lthumb 0.617563 24.3594
rfemur -36.4294 -2.86972 18.9175
rtibia 56.9397
rfoot -19.1126 -3.00614
rtoes 4.11502
lfemur -35.4303 8.07984 -18.3878
ltibia 54.7898
lfoot -17.5128 3.64237
ltoes -4.2684
393
root 0.358093 16.0625 -4.67952 0.877881 1.2439 -0.885819
lowerback 9.6699 0.359828 -1.22987
upperback 4.81817 0.397816 1.69099
thorax -0.440326 0.16149 2.40023
lowerneck -14.3912 -0.306562 -1.78252
upperneck 29.831 -0.252875 1.02947
head 12.2176 -0.17451 0.661884
rclavicle -2.38542e-015 7.55382e-015
rhumerus -24.0877 -19.0739 -79.2753
rradius 20.141
rwrist 41.7175
rhand -20.1545 -27.9905
rfingers 7.12502
rthumb 6.19064 -57.8801
lclavicle -2.38542e-015 7.55382e-015
lhumerus -25.0193 15.0463 83.6271
lradius 10.4346
lwrist -3.64153
lhand -26.3269 -5.86585
lfingers 7.12502
lthumb 0.230006 24.1138
rfemur -36.0546 -3.2822 19.0973
rtibia 57.8822
rfoot -19.9245 -3.13163
rtoes 3.16716
lfemur -35.1111 8.01869 -18.1699
ltibia 55.8442
lfoot -18.1946 4.32274
ltoes -5.60099
394
root 0.366923 16.0196 -4.62762 0.486013 1.25922 -0.96168
lowerback 10.0544 0.330428 -1.04963
upperback 4.95754 0.372111 1.7088
thorax -0.503763 0.150713 2.31932
lowerneck -14.3845 -0.316377 -1.74408
upperneck 30.0724 -0.298609 1.0902
head 12.3141 -0.183557 0.673002
rclavicle 7.85199e-015 1.63003e-014
rhumerus -23.7617 -18.6065 -79.4357
rradius 20.1064
rwrist 41.008
rhand -20.1237 -27.8381
rfingers 7.12502
rthumb 6.2204 -57.7268
lclavicle 7.85199e-015 1.63003e-014
lhumerus -24.8252 14.7081 83.9927
lradius 10.1754
lwrist -4.37713
lhand -26.4874 -6.09775
lfingers 7.12502
lthumb 0.0750448 23.882
rfemur -35.7083 -3.76424 19.2112
rtibia 58.4651
rfoot -20.5387 -3.24347
rtoes 2.04446
lfemur -34.7995 7.94683 -18.0693
ltibia 56.4977
lfoot -18.6327 5.02131
ltoes -7.02708
395
root 0.375338 15.9921 -4.578 0.347053 1.25195 -0.95734
lowerback 10.1902 0.313123 -0.953711
upperback 5.00972 0.356777 1.69868
thorax -0.522519 0.144441 2.25623
lowerneck -14.3683 -0.342066 -1.70255
upperneck 30.4632 -0.370301 1.15366
head 12.4704 -0.203618 0.681865
rclavicle -5.46658e-015 -1.55052e-014
rhumerus -23.4761 -18.0138 -79.6254
rradius 20.0817
rwrist 40.4189
rhand -20.0265 -27.6593
rfingers 7.12502
rthumb 6.31423 -57.5452
lclavicle -5.46658e-015 -1.55052e-014
lhumerus -24.5843 13.7325 84.6126
lradius 9.94154
lwrist -4.58288
lhand -26.4473 -6.22726
lfingers 7.12502
lthumb 0.113699 23.7525
rfemur -35.5533 -4.1999 19.2385
rtibia 58.8454
rfoot -21.0051 -3.29605
rtoes 1.21007
lfemur -34.6443 7.82612 -18.0814
ltibia 56.9019
lfoot -18.9057 5.65229
ltoes -8.06294
396
root 0.382143 15.9759 -4.53028 0.462347 1.21603 -0.878147
lowerback 10.0887 0.310384 -0.955412
upperback 4.98215 0.352897 1.66822
thorax -0.495515 0.142788 2.22607
lowerneck -14.346 -0.374962 -1.63959
upperneck 30.9231 -0.453752 1.19802
head 12.6556 -0.228682 0.67851
rclavicle 4.17448e-015 5.1684e-015
rhumerus -23.2501 -17.3903 -79.8104
rradius 20.1011
rwrist 40.1499
rhand -19.8628 -27.4702
rfingers 7.12502
rthumb 6.47231 -57.3513
lclavicle 4.17448e-015 5.1684e-015
lhumerus -24.3993 12.7389 85.1967
lradius 9.84056
lwrist -4.73651
lhand -26.0457 -6.21831
lfingers 7.12502
lthumb 0.501606 23.7608
rfemur -35.6377 -4.5083 19.1817
rtibia 59.116
rfoot -21.3701 -3.29563
rtoes 0.808126
lfemur -34.6905 7.63098 -18.1858
ltibia 57.1537
lfoot -19.0819 6.20043
ltoes -8.65267
397
root 0.386641 15.9682 -4.48492 0.780064 1.15797 -0.756861
lowerback 9.80777 0.316943 -1.03017
upperback 4.90191 0.355791 1.6309
thorax -0.425705 0.143455 2.22944
lowerneck -14.3139 -0.415438 -1.59947
upperneck 31.3639 -0.546884 1.25526
head 12.8331 -0.258548 0.682541
rclavicle 6.55989e-015 7.55382e-015
rhumerus -23.0923 -16.7956 -79.9725
rradius 20.2063
rwrist 40.2116
rhand -19.6552 -27.2841
rfingers 7.12502
rthumb 6.67271 -57.1589
lclavicle 6.55989e-015 7.55382e-015
lhumerus -24.285 11.7401 85.7502
lradius 9.94925
lwrist -4.69001
lhand -25.3161 -5.97923
lfingers 7.12502
lthumb 1.20627 23.9971
rfemur -35.9154 -4.65588 19.0795
rtibia 59.3033
rfoot -21.6499 -3.31022
rtoes 0.675012
lfemur -34.9059 7.37817 -18.3359
ltibia 57.2904
lfoot -19.1942 6.65941
ltoes -8.91234
398
root 0.389172 15.9708 -4.44211 1.20065 1.09943 -0.628131
lowerback 9.44475 0.323022 -1.13451
upperback 4.80502 0.356581 1.59488
thorax -0.328011 0.142453 2.25123
lowerneck -14.2803 -0.459269 -1.5813
upperneck 31.7361 -0.643557 1.32613
head 12.9836 -0.29032 0.694764
rclavicle -3.97569e-016 -1.19271e-015
rhumerus -23.0063 -16.2784 -80.108
rradius 20.4205
rwrist 40.4402
rhand -19.4571 -27.1265
rfingers 7.12502
rthumb 6.86391 -56.9953
lclavicle -3.97569e-016 -1.19271e-015
lhumerus -24.2469 10.7377 86.2772
lradius 10.2927
lwrist -4.33197
lhand -24.3623 -5.53992
lfingers 7.12502
lthumb 2.12749 24.4292
rfemur -36.249 -4.67485 18.9693
rtibia 59.3745
rfoot -21.8415 -3.38049
rtoes 0.659151
lfemur -35.1756 7.09185 -18.4887
ltibia 57.2955
lfoot -19.2437 7.02291
ltoes -8.9653
399
root 0.390353 15.9869 -4.4016 1.62292 1.05437 -0.524043
lowerback 9.09365 0.321281 -1.2279
upperback 4.72791 0.348674 1.56996
thorax -0.215514 0.13683 2.27924
lowerneck -14.2673 -0.503101 -1.5831
upperneck 32.0146 -0.734699 1.39868
head 13.1004 -0.321435 0.711428
rclavicle 5.96354e-016 -1.86858e-014
rhumerus -22.9783 -15.8688 -80.2161
rradius 20.7376
rwrist 40.6221
rhand -19.3153 -27.0175
rfingers 7.12502
rthumb 7.00078 -56.8817
lclavicle 5.96354e-016 -1.86858e-014
lhumerus -24.2409 9.28415 86.9904
lradius 10.8448
lwrist -3.12009
lhand -23.4621 -5.02959
lfingers 7.12502
lthumb 2.99682 24.9291
rfemur -36.4929 -4.59871 18.8817
rtibia 59.28
rfoot -21.9373 -3.51201
rtoes 0.72191
lfemur -35.3668 6.80325 -18.6052
ltibia 57.1334
lfoot -19.2334 7.27754
ltoes -8.84258
400
root 0.390826 16.0177 -4.36334 1.98698 1.03237 -0.465301
lowerback 8.81454 0.30936 -1.27685
upperback 4.68366 0.330865 1.5598
thorax -0.107548 0.126559 2.29828
lowerneck -14.2614 -0.543886 -1.6017
upperneck 32.1831 -0.814815 1.46827
head 13.1726 -0.349884 0.730838
rclavicle -1.39149e-015 -3.97569e-016
rhumerus -22.9993 -15.5734 -80.3025
rradius 21.128
rwrist 40.5462
rhand -19.2781 -26.9731
rfingers 7.12502
rthumb 7.03669 -56.8361
lclavicle -1.39149e-015 -3.97569e-016
lhumerus -24.3029 7.79895 87.7002
lradius 11.5636
lwrist -1.47065
lhand -22.6515 -4.49839
lfingers 7.12502
lthumb 3.77966 25.4478
rfemur -36.5589 -4.46815 18.8361
rtibia 58.9819
rfoot -21.917 -3.66725
rtoes 0.923569
lfemur -35.3967 6.53629 -18.6617
ltibia 56.7729
lfoot -19.1641 7.41422
ltoes -8.60842
